<?xml version="1.0" encoding="UTF-8"?>
<svg id="Layer_1" data-name="Layer 1" xmlns="http://www.w3.org/2000/svg" viewBox="0 0 722.17 468.86">
  <defs>
    <style>
      .cls-1 {
        fill: #895159;
        stroke-width: 0px;
      }
    </style>
  </defs>
  <ellipse class="cls-1" cx="173.31" cy="256.85" rx="17.02" ry="22.43"/>
  <path class="cls-1" d="M465.69,312.57h97.2c2.67,0,4.01-3.23,2.12-5.12l-149.4-149.41c-1.13-1.13-2.65-1.76-4.24-1.76h-95.96c-2.67,0-4.01,3.23-2.12,5.12l41.19,41.19c1.89,1.89.55,5.12-2.12,5.12h-40.12c-.8,0-1.56-.32-2.12-.88l-48.79-48.79c-1.13-1.13-2.65-1.76-4.24-1.76h-95.96c-2.67,0-4.01,3.23-2.12,5.12l149.41,149.41c1.13,1.13,2.65,1.76,4.24,1.76h95.95c2.67,0,4.01-3.23,2.12-5.12l-46.84-46.84c-.56-.56-.88-1.33-.88-2.12v-40.12c0-2.67,3.23-4.01,5.12-2.12l95.44,95.44c.56.56,1.33.88,2.12.88Z"/>
</svg>